<svg width="66" height="66" viewBox="0 0 66 66" fill="none" xmlns="http://www.w3.org/2000/svg">
<circle cx="33" cy="33" r="33" fill="#0085E5"/>
<g clip-path="url(#clip0_4000_1345)">
<path d="M57 23H9V43H57V23Z" fill="#0085E5"/>
<path d="M49.6205 27.6607V24.5995H41.3924L40.0392 34.8264L38.7002 24.5995H35.733L36.0654 27.3284C35.7227 26.6293 34.5079 24.5995 31.8344 24.5995C31.8168 24.5983 28.8632 24.5995 28.8632 24.5995L28.8518 39.506L26.6891 24.5995L22.803 24.5972L20.5656 40.0424L20.5668 24.5994H16.8476L15.5068 33.275L14.2009 24.5995H10.4805V41.391H13.4102V33.2975L14.7429 41.3908H16.3004L17.6144 33.2975V41.3908H23.2624L23.6051 38.807H25.8791L26.2206 41.3908L31.7656 41.3943H31.7701V41.3908H31.7736H31.7771V35.9402L32.4568 35.8377L33.8641 41.3943H33.8676H36.7289H36.7322L36.7311 41.3908H36.7362H36.7396L34.8928 34.8782C35.8287 34.1615 36.8855 32.3415 36.6042 30.6005V30.5993C36.6076 30.6229 38.3474 41.4015 38.3474 41.4015L41.7585 41.3908L44.0893 26.1707V41.3908H49.6207V38.3709H46.9951V34.5199H49.6207V31.4539H46.9951V27.6607H49.6205ZM23.9502 36.1443L24.7546 28.9656L25.5898 36.1443H23.9502ZM32.4663 32.8296C32.2409 32.9428 32.0058 32.9994 31.7769 32.9994V27.5982C31.7809 27.5982 31.7855 27.5971 31.7912 27.5971C32.0206 27.5959 33.7313 27.669 33.7313 30.2693C33.7313 31.6295 33.1495 32.4866 32.4663 32.8296ZM55.5236 38.3685V41.3885H50.1277V24.5972H53.033V38.3685H55.5236Z" fill="white"/>
</g>
<defs>
<clipPath id="clip0_4000_1345">
<rect width="48" height="20" fill="white" transform="translate(9 23)"/>
</clipPath>
</defs>
</svg>
