<svg width="192" height="22" viewBox="0 0 192 22" fill="none" xmlns="http://www.w3.org/2000/svg">
<path d="M6.83333 21H10.9333V4.66074H17.3719V0.955556H0.425185V4.66074H6.83333V21ZM43.884 0.955556L39.4196 12.7393L34.1655 0.591111H32.7988L27.5447 12.8L23.0803 0.955556H18.5247L26.5425 21.3644H27.8788L33.4973 8.79111L39.0855 21.3644H40.4218L48.4396 0.955556H43.884ZM49.7645 10.9778C49.6733 16.7178 54.6237 21.4859 60.3941 21.3644C66.1645 21.4859 71.1756 16.7178 71.0845 10.9778C71.1756 5.23778 66.1645 0.469629 60.3941 0.591111C54.6237 0.469629 49.6733 5.23778 49.7645 10.9778ZM66.863 10.9778C66.863 14.8348 64.0993 17.5681 60.4245 17.5681C56.7193 17.5681 53.9859 14.8348 53.9859 10.9778C53.9859 7.12074 56.7193 4.38741 60.4245 4.38741C64.0993 4.38741 66.863 7.18148 66.863 10.9778ZM72.7266 18.54C72.7266 20.1496 73.9718 21.3644 75.5814 21.3644C77.191 21.3644 78.3755 20.1496 78.3755 18.54C78.3755 16.9607 77.1607 15.7156 75.5814 15.7156C73.9718 15.7156 72.7266 16.9607 72.7266 18.54Z" fill="#000239"/>
<path d="M96.4845 21H99.0053L90.3193 0.621482H89.4386L80.7527 21H83.243L84.9438 16.9304H94.7838L96.4845 21ZM93.8727 14.8044H85.8549L89.8638 4.93407L93.8727 14.8044ZM100.933 10.9778C100.811 16.7178 105.67 21.4252 111.35 21.3341C114.903 21.3341 118.001 19.6637 119.671 17.0215L117.91 15.6244C116.361 17.8415 114.144 19.1474 111.38 19.1474C106.855 19.1474 103.393 15.6244 103.393 10.9778C103.393 6.33111 106.855 2.80815 111.38 2.80815C114.144 2.80815 116.361 4.11407 117.91 6.33111L119.671 4.93407C117.97 2.29185 114.903 0.621482 111.35 0.621482C105.67 0.530371 100.811 5.23778 100.933 10.9778ZM128.808 21H131.177V3.08148H138.253V0.955556H121.762V3.08148H128.808V21ZM141.595 21H143.964V0.955556H141.595V21ZM189.516 0.955556V16.0193L176.761 0.621482H175.91V21H178.279V5.96667L191.035 21.3341H191.885V0.955556H189.516Z" fill="#0085E5"/>
</svg>
