<svg width="196" height="44" viewBox="0 0 196 44" fill="none" xmlns="http://www.w3.org/2000/svg">
<g clip-path="url(#clip0_11801_2)">
<path d="M6.83333 25H10.9333V8.66074H17.3719V4.95556H0.425185V8.66074H6.83333V25ZM43.884 4.95556L39.4196 16.7393L34.1655 4.59111H32.7988L27.5447 16.8L23.0803 4.95556H18.5247L26.5425 25.3644H27.8788L33.4973 12.7911L39.0855 25.3644H40.4218L48.4396 4.95556H43.884ZM49.7645 14.9778C49.6733 20.7178 54.6237 25.4859 60.3941 25.3644C66.1645 25.4859 71.1756 20.7178 71.0845 14.9778C71.1756 9.23778 66.1645 4.46963 60.3941 4.59111C54.6237 4.46963 49.6733 9.23778 49.7645 14.9778ZM66.863 14.9778C66.863 18.8348 64.0993 21.5681 60.4245 21.5681C56.7193 21.5681 53.9859 18.8348 53.9859 14.9778C53.9859 11.1207 56.7193 8.38741 60.4245 8.38741C64.0993 8.38741 66.863 11.1815 66.863 14.9778ZM72.7266 22.54C72.7266 24.1496 73.9718 25.3644 75.5814 25.3644C77.191 25.3644 78.3755 24.1496 78.3755 22.54C78.3755 20.9607 77.1607 19.7156 75.5814 19.7156C73.9718 19.7156 72.7266 20.9607 72.7266 22.54Z" fill="#000239"/>
<path d="M96.4845 25H99.0053L90.3193 4.62148H89.4386L80.7527 25H83.243L84.9438 20.9304H94.7838L96.4845 25ZM93.8727 18.8044H85.8549L89.8638 8.93407L93.8727 18.8044ZM100.933 14.9778C100.811 20.7178 105.67 25.4252 111.35 25.3341C114.903 25.3341 118.001 23.6637 119.671 21.0215L117.91 19.6244C116.361 21.8415 114.144 23.1474 111.38 23.1474C106.855 23.1474 103.393 19.6244 103.393 14.9778C103.393 10.3311 106.855 6.80815 111.38 6.80815C114.144 6.80815 116.361 8.11407 117.91 10.3311L119.671 8.93407C117.97 6.29185 114.903 4.62148 111.35 4.62148C105.67 4.53037 100.811 9.23778 100.933 14.9778ZM128.808 25H131.177V7.08148H138.253V4.95556H121.762V7.08148H128.808V25ZM141.595 25H143.964V4.95556H141.595V25ZM189.516 4.95556V20.0193L176.761 4.62148H175.91V25H178.279V9.96667L191.035 25.3341H191.885V4.95556H189.516Z" fill="#0085E5"/>
<path d="M49.476 38.3335H52.1122C53.5259 38.3335 54.4719 37.4619 54.4719 36.2182C54.4719 34.9852 53.5259 34.1242 52.1122 34.1242H50.6028V32.3278H53.8979V31.3179H49.476V38.3335ZM50.6028 37.3449V35.0915H52.0696C52.8669 35.0915 53.3346 35.5379 53.3346 36.2182C53.3346 36.8985 52.8669 37.3449 52.0696 37.3449H50.6028ZM60.0825 32.9974L57.0318 36.3776V33.1143H55.905V38.4504H56.2983L59.3384 35.0915V38.3335H60.4651V32.9974H60.0825ZM67.7253 35.7186C67.7253 34.1773 66.641 32.9974 65.1635 32.9974C64.3982 32.9974 63.7285 33.3057 63.3458 33.8478V33.1143H62.3041V40.2468H63.4203V37.6957C63.8348 38.1741 64.4513 38.4504 65.1635 38.4504C66.641 38.4504 67.7253 37.2812 67.7253 35.7186ZM66.5773 35.7292C66.5773 36.7284 65.8757 37.43 64.9828 37.43C64.1643 37.43 63.4096 36.8666 63.4096 35.7186C63.4096 34.5812 64.1643 34.0179 64.9828 34.0179C65.8863 34.0179 66.5773 34.7301 66.5773 35.7292ZM68.5672 33.1143L70.5975 35.5379L68.4078 38.3335H69.7152L71.9156 35.5379L69.9172 33.1143H68.5672ZM71.9581 38.3335H73.0742V33.1143H71.9581V38.3335ZM74.4454 35.506L76.4544 33.1143H75.1151L73.1061 35.5379L75.3064 38.3335H76.667L74.4454 35.506ZM81.937 35.1765C81.937 33.7734 81.0866 32.9974 79.8004 32.9974C78.8969 32.9974 78.121 33.3588 77.6001 34.1135L78.2485 34.7726C78.6843 34.2517 79.1095 33.9966 79.6941 33.9966C80.4063 33.9966 80.8102 34.3899 80.8102 35.1127V35.4529H79.3327C78.1528 35.4529 77.4088 36.0375 77.4088 36.941C77.4088 37.8445 78.1316 38.4504 79.2264 38.4504C79.9386 38.4504 80.5126 38.2059 80.8953 37.7489V38.3335H81.937V35.1765ZM80.8102 36.3564C80.8102 37.0686 80.215 37.5894 79.4603 37.5894C78.9182 37.5894 78.5461 37.3343 78.5461 36.8985C78.5461 36.4733 78.8757 36.2607 79.4709 36.2607H80.8102V36.3564ZM86.6183 35.7399C86.6183 37.2386 87.8301 38.4504 89.3289 38.4504C90.2324 38.4504 90.9871 38.0146 91.4548 37.3237L90.8702 36.8666C90.4556 37.4193 89.9454 37.6957 89.3395 37.6957C88.2659 37.6957 87.4581 36.8241 87.4581 35.7399C87.4581 34.6663 88.2659 33.7946 89.3395 33.7946C89.9454 33.7946 90.4663 34.071 90.8808 34.6344L91.4655 34.1667C90.9977 33.4758 90.2324 33.0399 89.3289 33.0399C87.8514 33.0187 86.5865 34.2623 86.6183 35.7399ZM92.5817 35.7399C92.5605 37.1961 93.8041 38.4717 95.2817 38.4398C96.7592 38.4717 98.0347 37.1961 98.0028 35.7399C98.0347 34.2623 96.7698 33.0187 95.2923 33.0399C93.8148 33.0081 92.5498 34.2623 92.5817 35.7399ZM97.1631 35.7505C97.1631 36.8347 96.334 37.6851 95.2817 37.6851C94.2293 37.6851 93.4215 36.8347 93.4215 35.7505C93.4215 34.6344 94.2293 33.7946 95.2923 33.7946C96.3446 33.7946 97.1631 34.6344 97.1631 35.7505ZM99.2821 35.7399C99.2609 37.1961 100.505 38.4717 101.982 38.4398C103.46 38.4717 104.735 37.1961 104.703 35.7399C104.735 34.2623 103.47 33.0187 101.993 33.0399C100.515 33.0081 99.2502 34.2623 99.2821 35.7399ZM103.864 35.7505C103.864 36.8347 103.034 37.6851 101.982 37.6851C100.93 37.6851 100.122 36.8347 100.122 35.7505C100.122 34.6344 100.93 33.7946 101.993 33.7946C103.045 33.7946 103.864 34.6344 103.864 35.7505ZM111.457 35.8355C111.489 34.4431 110.266 33.1994 108.874 33.2313C108.066 33.2313 107.322 33.6246 106.886 34.273C106.886 33.7202 106.939 33.2632 107.035 32.9124C107.131 32.551 107.364 32.2427 107.726 31.977C108.087 31.7112 108.64 31.5199 109.373 31.4136C110.149 31.2967 110.691 31.1691 111.021 31.0309V30.2443C110.734 30.3613 110.16 30.4995 109.278 30.6589C107.524 30.9565 106.652 31.6475 106.323 32.6679C106.163 33.1781 106.089 33.8265 106.089 34.6238V35.5273C106.089 37.2493 107.173 38.4398 108.757 38.4398C110.234 38.4717 111.478 37.2493 111.457 35.8355ZM110.617 35.8355C110.617 36.8666 109.799 37.6851 108.767 37.6851C107.758 37.6851 106.918 36.8453 106.918 35.8355C106.918 34.8045 107.758 33.986 108.767 33.986C109.799 33.986 110.617 34.8045 110.617 35.8355ZM119.931 39.8323H120.75V37.6107H119.91V33.1569H119.091V37.6107H116.912V33.1569H116.094V37.6107H113.925V33.1569H113.107V38.3335H119.931V39.8323ZM126.714 35.995C126.756 35.7824 126.777 35.5804 126.777 35.3785C126.777 34.0072 125.757 33.0399 124.418 33.0399C122.94 33.0399 121.771 34.2517 121.771 35.7505C121.771 37.2705 122.972 38.4504 124.513 38.4504C125.332 38.4504 126.044 38.1103 126.586 37.5469L126.108 36.9942C125.64 37.4619 125.109 37.6957 124.524 37.6957C123.503 37.6957 122.717 37.0154 122.621 35.995H126.714ZM122.653 35.2722C122.834 34.3793 123.535 33.784 124.396 33.784C125.257 33.784 125.927 34.3474 125.938 35.2722H122.653ZM128.056 35.7399C128.056 37.2386 129.268 38.4504 130.767 38.4504C131.67 38.4504 132.425 38.0146 132.893 37.3237L132.308 36.8666C131.893 37.4193 131.383 37.6957 130.777 37.6957C129.704 37.6957 128.896 36.8241 128.896 35.7399C128.896 34.6663 129.704 33.7946 130.777 33.7946C131.383 33.7946 131.904 34.071 132.319 34.6344L132.903 34.1667C132.435 33.4758 131.67 33.0399 130.767 33.0399C129.289 33.0187 128.024 34.2623 128.056 35.7399ZM135.548 38.3335H136.355V33.8903H138.099V33.1569H133.804V33.8903H135.548V38.3335ZM143.683 36.7709C143.683 36.1757 143.311 35.7399 142.705 35.5273C143.045 35.3041 143.247 34.9426 143.247 34.5281C143.247 33.6883 142.598 33.1569 141.578 33.1569H139.441V38.3335H141.844C142.96 38.3335 143.683 37.6957 143.683 36.7709ZM140.26 33.8903H141.589C142.152 33.8903 142.439 34.1135 142.439 34.5706C142.439 35.0064 142.152 35.2722 141.589 35.2722H140.26V33.8903ZM142.864 36.7709C142.864 37.2705 142.471 37.6107 141.791 37.6107H140.26V35.995H141.791C142.471 35.995 142.864 36.2926 142.864 36.7709Z" fill="#0085E5"/>
<rect x="148" y="44" width="42" height="24" rx="12" transform="rotate(-90 148 44)" fill="#0085E5" fill-opacity="0.2"/>
<g filter="url(#filter0_d_11801_2)">
<circle cx="160" cy="14" r="9" fill="white"/>
</g>
</g>
<defs>
<filter id="filter0_d_11801_2" x="29.5185" y="-75.4815" width="260.963" height="260.963" filterUnits="userSpaceOnUse" color-interpolation-filters="sRGB">
<feFlood flood-opacity="0" result="BackgroundImageFix"/>
<feColorMatrix in="SourceAlpha" type="matrix" values="0 0 0 0 0 0 0 0 0 0 0 0 0 0 0 0 0 0 127 0" result="hardAlpha"/>
<feOffset dy="41"/>
<feGaussianBlur stdDeviation="60.7407"/>
<feColorMatrix type="matrix" values="0 0 0 0 0 0 0 0 0 0 0 0 0 0 0 0 0 0 0.26 0"/>
<feBlend mode="normal" in2="BackgroundImageFix" result="effect1_dropShadow_11801_2"/>
<feBlend mode="normal" in="SourceGraphic" in2="effect1_dropShadow_11801_2" result="shape"/>
</filter>
<clipPath id="clip0_11801_2">
<rect width="195.889" height="44" fill="white"/>
</clipPath>
</defs>
</svg>
