<svg width="291" height="221" viewBox="0 0 291 221" fill="none" xmlns="http://www.w3.org/2000/svg">
<path d="M6.83333 60H10.9333V43.6607H17.3719V39.9556H0.425185V43.6607H6.83333V60ZM43.884 39.9556L39.4196 51.7393L34.1655 39.5911H32.7988L27.5447 51.8L23.0803 39.9556H18.5247L26.5425 60.3644H27.8788L33.4973 47.7911L39.0855 60.3644H40.4218L48.4396 39.9556H43.884ZM49.7645 49.9778C49.6733 55.7178 54.6237 60.4859 60.3941 60.3644C66.1645 60.4859 71.1756 55.7178 71.0845 49.9778C71.1756 44.2378 66.1645 39.4696 60.3941 39.5911C54.6237 39.4696 49.6733 44.2378 49.7645 49.9778ZM66.863 49.9778C66.863 53.8348 64.0993 56.5681 60.4245 56.5681C56.7193 56.5681 53.9859 53.8348 53.9859 49.9778C53.9859 46.1207 56.7193 43.3874 60.4245 43.3874C64.0993 43.3874 66.863 46.1815 66.863 49.9778ZM72.7266 57.54C72.7266 59.1496 73.9718 60.3644 75.5814 60.3644C77.191 60.3644 78.3755 59.1496 78.3755 57.54C78.3755 55.9607 77.1607 54.7156 75.5814 54.7156C73.9718 54.7156 72.7266 55.9607 72.7266 57.54Z" fill="#000239"/>
<path d="M96.4845 60H99.0053L90.3193 39.6215H89.4386L80.7527 60H83.243L84.9438 55.9304H94.7838L96.4845 60ZM93.8727 53.8044H85.8549L89.8638 43.9341L93.8727 53.8044ZM100.933 49.9778C100.811 55.7178 105.67 60.4252 111.35 60.3341C114.903 60.3341 118.001 58.6637 119.671 56.0215L117.91 54.6244C116.361 56.8415 114.144 58.1474 111.38 58.1474C106.855 58.1474 103.393 54.6244 103.393 49.9778C103.393 45.3311 106.855 41.8081 111.38 41.8081C114.144 41.8081 116.361 43.1141 117.91 45.3311L119.671 43.9341C117.97 41.2919 114.903 39.6215 111.35 39.6215C105.67 39.5304 100.811 44.2378 100.933 49.9778ZM128.808 60H131.177V42.0815H138.253V39.9556H121.762V42.0815H128.808V60ZM141.595 60H143.964V39.9556H141.595V60ZM189.516 39.9556V55.0193L176.761 39.6215H175.91V60H178.279V44.9667L191.035 60.3341H191.885V39.9556H189.516Z" fill="#0085E5"/>
<path d="M49.476 73.3335H52.1122C53.5259 73.3335 54.4719 72.4619 54.4719 71.2182C54.4719 69.9852 53.5259 69.1242 52.1122 69.1242H50.6028V67.3278H53.8979V66.3179H49.476V73.3335ZM50.6028 72.3449V70.0915H52.0696C52.8669 70.0915 53.3346 70.5379 53.3346 71.2182C53.3346 71.8985 52.8669 72.3449 52.0696 72.3449H50.6028ZM60.0825 67.9974L57.0318 71.3776V68.1143H55.905V73.4504H56.2983L59.3384 70.0915V73.3335H60.4651V67.9974H60.0825ZM67.7253 70.7186C67.7253 69.1773 66.641 67.9974 65.1635 67.9974C64.3982 67.9974 63.7285 68.3057 63.3458 68.8478V68.1143H62.3041V75.2468H63.4203V72.6957C63.8348 73.1741 64.4513 73.4504 65.1635 73.4504C66.641 73.4504 67.7253 72.2812 67.7253 70.7186ZM66.5773 70.7292C66.5773 71.7284 65.8757 72.43 64.9828 72.43C64.1643 72.43 63.4096 71.8666 63.4096 70.7186C63.4096 69.5812 64.1643 69.0179 64.9828 69.0179C65.8863 69.0179 66.5773 69.7301 66.5773 70.7292ZM68.5672 68.1143L70.5975 70.5379L68.4078 73.3335H69.7152L71.9156 70.5379L69.9172 68.1143H68.5672ZM71.9581 73.3335H73.0742V68.1143H71.9581V73.3335ZM74.4454 70.506L76.4544 68.1143H75.1151L73.1061 70.5379L75.3064 73.3335H76.667L74.4454 70.506ZM81.937 70.1765C81.937 68.7734 81.0866 67.9974 79.8004 67.9974C78.8969 67.9974 78.121 68.3588 77.6001 69.1135L78.2485 69.7726C78.6843 69.2517 79.1095 68.9966 79.6941 68.9966C80.4063 68.9966 80.8102 69.3899 80.8102 70.1127V70.4529H79.3327C78.1528 70.4529 77.4088 71.0375 77.4088 71.941C77.4088 72.8445 78.1316 73.4504 79.2264 73.4504C79.9386 73.4504 80.5126 73.2059 80.8953 72.7489V73.3335H81.937V70.1765ZM80.8102 71.3564C80.8102 72.0686 80.215 72.5894 79.4603 72.5894C78.9182 72.5894 78.5461 72.3343 78.5461 71.8985C78.5461 71.4733 78.8757 71.2607 79.4709 71.2607H80.8102V71.3564ZM86.6183 70.7399C86.6183 72.2386 87.8301 73.4504 89.3289 73.4504C90.2324 73.4504 90.9871 73.0146 91.4548 72.3237L90.8702 71.8666C90.4556 72.4193 89.9454 72.6957 89.3395 72.6957C88.2659 72.6957 87.4581 71.8241 87.4581 70.7399C87.4581 69.6663 88.2659 68.7946 89.3395 68.7946C89.9454 68.7946 90.4663 69.071 90.8808 69.6344L91.4655 69.1667C90.9977 68.4758 90.2324 68.0399 89.3289 68.0399C87.8514 68.0187 86.5865 69.2623 86.6183 70.7399ZM92.5817 70.7399C92.5605 72.1961 93.8041 73.4717 95.2817 73.4398C96.7592 73.4717 98.0347 72.1961 98.0028 70.7399C98.0347 69.2623 96.7698 68.0187 95.2923 68.0399C93.8148 68.0081 92.5498 69.2623 92.5817 70.7399ZM97.1631 70.7505C97.1631 71.8347 96.334 72.6851 95.2817 72.6851C94.2293 72.6851 93.4215 71.8347 93.4215 70.7505C93.4215 69.6344 94.2293 68.7946 95.2923 68.7946C96.3446 68.7946 97.1631 69.6344 97.1631 70.7505ZM99.2821 70.7399C99.2609 72.1961 100.505 73.4717 101.982 73.4398C103.46 73.4717 104.735 72.1961 104.703 70.7399C104.735 69.2623 103.47 68.0187 101.993 68.0399C100.515 68.0081 99.2502 69.2623 99.2821 70.7399ZM103.864 70.7505C103.864 71.8347 103.034 72.6851 101.982 72.6851C100.93 72.6851 100.122 71.8347 100.122 70.7505C100.122 69.6344 100.93 68.7946 101.993 68.7946C103.045 68.7946 103.864 69.6344 103.864 70.7505ZM111.457 70.8355C111.489 69.4431 110.266 68.1994 108.874 68.2313C108.066 68.2313 107.322 68.6246 106.886 69.273C106.886 68.7202 106.939 68.2632 107.035 67.9124C107.131 67.551 107.364 67.2427 107.726 66.977C108.087 66.7112 108.64 66.5199 109.373 66.4136C110.149 66.2967 110.691 66.1691 111.021 66.0309V65.2443C110.734 65.3613 110.16 65.4995 109.278 65.6589C107.524 65.9565 106.652 66.6475 106.323 67.6679C106.163 68.1781 106.089 68.8265 106.089 69.6238V70.5273C106.089 72.2493 107.173 73.4398 108.757 73.4398C110.234 73.4717 111.478 72.2493 111.457 70.8355ZM110.617 70.8355C110.617 71.8666 109.799 72.6851 108.767 72.6851C107.758 72.6851 106.918 71.8453 106.918 70.8355C106.918 69.8045 107.758 68.986 108.767 68.986C109.799 68.986 110.617 69.8045 110.617 70.8355ZM119.931 74.8323H120.75V72.6107H119.91V68.1569H119.091V72.6107H116.912V68.1569H116.094V72.6107H113.925V68.1569H113.107V73.3335H119.931V74.8323ZM126.714 70.995C126.756 70.7824 126.777 70.5804 126.777 70.3785C126.777 69.0072 125.757 68.0399 124.418 68.0399C122.94 68.0399 121.771 69.2517 121.771 70.7505C121.771 72.2705 122.972 73.4504 124.513 73.4504C125.332 73.4504 126.044 73.1103 126.586 72.5469L126.108 71.9942C125.64 72.4619 125.109 72.6957 124.524 72.6957C123.503 72.6957 122.717 72.0154 122.621 70.995H126.714ZM122.653 70.2722C122.834 69.3793 123.535 68.784 124.396 68.784C125.257 68.784 125.927 69.3474 125.938 70.2722H122.653ZM128.056 70.7399C128.056 72.2386 129.268 73.4504 130.767 73.4504C131.67 73.4504 132.425 73.0146 132.893 72.3237L132.308 71.8666C131.893 72.4193 131.383 72.6957 130.777 72.6957C129.704 72.6957 128.896 71.8241 128.896 70.7399C128.896 69.6663 129.704 68.7946 130.777 68.7946C131.383 68.7946 131.904 69.071 132.319 69.6344L132.903 69.1667C132.435 68.4758 131.67 68.0399 130.767 68.0399C129.289 68.0187 128.024 69.2623 128.056 70.7399ZM135.548 73.3335H136.355V68.8903H138.099V68.1569H133.804V68.8903H135.548V73.3335ZM143.683 71.7709C143.683 71.1757 143.311 70.7399 142.705 70.5273C143.045 70.3041 143.247 69.9426 143.247 69.5281C143.247 68.6883 142.598 68.1569 141.578 68.1569H139.441V73.3335H141.844C142.96 73.3335 143.683 72.6957 143.683 71.7709ZM140.26 68.8903H141.589C142.152 68.8903 142.439 69.1135 142.439 69.5706C142.439 70.0064 142.152 70.2722 141.589 70.2722H140.26V68.8903ZM142.864 71.7709C142.864 72.2705 142.471 72.6107 141.791 72.6107H140.26V70.995H141.791C142.471 70.995 142.864 71.2926 142.864 71.7709Z" fill="#0085E5"/>
<rect x="148" y="79" width="42" height="24" rx="12" transform="rotate(-90 148 79)" fill="#0085E5" fill-opacity="0.2"/>
<g filter="url(#filter0_d_4059_2966)">
<circle cx="160" cy="49" r="9" fill="white"/>
</g>
<defs>
<filter id="filter0_d_4059_2966" x="29.5185" y="-40.4815" width="260.963" height="260.963" filterUnits="userSpaceOnUse" color-interpolation-filters="sRGB">
<feFlood flood-opacity="0" result="BackgroundImageFix"/>
<feColorMatrix in="SourceAlpha" type="matrix" values="0 0 0 0 0 0 0 0 0 0 0 0 0 0 0 0 0 0 127 0" result="hardAlpha"/>
<feOffset dy="41"/>
<feGaussianBlur stdDeviation="60.7407"/>
<feColorMatrix type="matrix" values="0 0 0 0 0 0 0 0 0 0 0 0 0 0 0 0 0 0 0.26 0"/>
<feBlend mode="normal" in2="BackgroundImageFix" result="effect1_dropShadow_4059_2966"/>
<feBlend mode="normal" in="SourceGraphic" in2="effect1_dropShadow_4059_2966" result="shape"/>
</filter>
</defs>
</svg>
