<svg width="16" height="16" viewBox="0 0 16 16" fill="none" xmlns="http://www.w3.org/2000/svg">
<g clip-path="url(#clip0_4000_957)">
<path d="M8 0C3.58862 0 0 3.58862 0 8C0 12.4114 3.58862 16 8 16C12.4114 16 16 12.4114 16 8C16 3.58862 12.4114 0 8 0Z" fill="white"/>
<path d="M12.0552 6.30469L7.7218 10.6379C7.5918 10.7679 7.42114 10.8334 7.25049 10.8334C7.07983 10.8334 6.90918 10.7679 6.77917 10.6379L4.61255 8.47131C4.35181 8.21069 4.35181 7.78931 4.61255 7.52869C4.87317 7.26794 5.29443 7.26794 5.55518 7.52869L7.25049 9.224L11.1125 5.36206C11.3732 5.10132 11.7944 5.10132 12.0552 5.36206C12.3158 5.62268 12.3158 6.04395 12.0552 6.30469Z" fill="#0085E5"/>
</g>
<defs>
<clipPath id="clip0_4000_957">
<rect width="16" height="16" fill="white"/>
</clipPath>
</defs>
</svg>
